<?xml version="1.0" encoding="UTF-8"?>
<svg id="Capa_1" data-name="Capa 1" xmlns="http://www.w3.org/2000/svg" viewBox="0 0 303.6 384">
  <defs>
    <style>
      .cls-1 {
        fill: #63318a;
        stroke-width: 0px;
      }
    </style>
  </defs>
  <path class="cls-1" d="M286.04,0c1.14.45,2.28.91,3.41,1.36,8.43,3.4,13.68,9.57,13.89,18.67.41,17.61.21,35.25.16,52.87-.01,3.89-2.32,6.05-5.74,5.94-3.43-.12-5.42-2.41-5.43-6.72-.06-15.62-.02-31.25-.03-46.87,0-1.37.02-2.75-.08-4.12-.43-5.81-4.37-9.82-10.23-9.82-47.38-.06-94.75-.02-142.13,0-.24,0-.48.12-.97.25v361.2h4.2c45.38,0,90.75,0,136.13,0,9.57,0,13.08-3.5,13.08-13.11,0-85.37,0-170.75.02-256.12,0-1.74-.02-3.52.33-5.21.58-2.83,2.66-4.3,5.42-4.22,2.92.08,4.96,1.69,5.34,4.77.2,1.6.15,3.24.15,4.87,0,84.5,0,169,0,253.5,0,15.86-3.19,20.73-17.52,26.78H17.52C3.2,377.97,0,373.09,0,357.24,0,246.83,0,136.42,0,26c0-2-.01-4,.11-5.99.39-6.5,3.21-11.83,8.48-15.55,2.69-1.89,5.93-3,8.92-4.46,89.51,0,179.01,0,268.52,0ZM127.27,11.43c-1.43-.07-2.53-.17-3.63-.17-33.5,0-66.99-.02-100.48,0-8,0-11.89,3.89-11.89,12.01-.02,112.48-.02,224.95,0,337.43,0,8.28,3.89,12.04,12.25,12.04,33.37.01,66.74,0,100.11,0,1.19,0,2.37-.1,3.65-.15V11.43Z"/>
  <path class="cls-1" d="M215.03,159.72c-16.73,0-33.46,0-50.19-.02-1.36,0-2.8.03-4.06-.38-2.68-.86-4.04-2.85-3.83-5.71.22-2.88,1.94-4.51,4.68-5.05.96-.19,1.99-.09,2.99-.09,33.71,0,67.42,0,101.14,0,.87,0,1.76-.06,2.62.05,2.98.37,4.81,2.03,5.07,5.06.27,3.23-1.45,5.21-4.49,5.96-1.19.29-2.48.17-3.73.17-16.73,0-33.46,0-50.19,0Z"/>
  <path class="cls-1" d="M215.45,182.97c16.61,0,33.21,0,49.82,0,1.12,0,2.27-.11,3.37.08,2.94.5,4.7,2.25,4.83,5.3.13,3.07-1.55,4.94-4.4,5.68-1.18.3-2.48.18-3.73.18-33.46,0-66.92,0-100.39,0-1,0-2.01.06-2.99-.07-3.18-.43-5.24-2.83-5.01-5.91.25-3.23,2.17-4.98,5.31-5.21,2.36-.17,4.74-.05,7.11-.05,15.36,0,30.72,0,46.07,0Z"/>
  <path class="cls-1" d="M215.12,252c17.23,0,34.46.02,51.69-.02,3.22,0,5.68.99,6.52,4.34.79,3.14-1.13,6.1-4.31,6.77-.96.2-1.99.16-2.98.16-33.84,0-67.67,0-101.51,0-.62,0-1.25.03-1.87-.02-3.53-.26-5.74-2.44-5.74-5.64,0-3.2,2.24-5.47,5.76-5.56,4.62-.11,9.24-.03,13.86-.03,12.86,0,25.72,0,38.58,0Z"/>
  <path class="cls-1" d="M215.32,286.5c16.61,0,33.21,0,49.82,0,1.12,0,2.27-.11,3.37.07,3.11.51,4.97,2.34,4.96,5.57-.01,3.22-1.9,5.01-5,5.55-.73.12-1.49.06-2.24.06-33.96,0-67.92,0-101.88,0-.87,0-1.78.09-2.61-.09-3.05-.66-4.87-2.49-4.77-5.75.09-3.07,1.92-4.78,4.81-5.32,1.09-.21,2.24-.08,3.36-.08,16.73,0,33.46,0,50.19,0Z"/>
  <path class="cls-1" d="M164.44,87.13c-.03-21.46,23.04-35.04,41.71-24.54,4.02,2.26,5.41,5.39,3.77,8.5-1.64,3.1-4.94,3.64-9.07,1.47-9.2-4.82-19.62-1.47-23.72,7.63-4.04,8.97.35,19.42,9.68,22.64,5.57,1.92,10.78,1.39,15.26-2.98,3-2.93,6.15-3.01,8.54-.51,2.32,2.43,2.02,5.66-.79,8.66-10.45,11.11-30.31,8.91-40.05-4.42-3.53-4.84-5.32-10.36-5.33-16.46Z"/>
  <path class="cls-1" d="M248.39,94.09c3.33-10.03,6.3-18.99,9.27-27.95,1.99-5.99,4.59-8.06,8.38-6.66,3.55,1.3,4.24,4.38,2.29,10.25-4.32,13-8.69,25.99-12.93,39.02-1.13,3.49-2.78,6.26-6.83,6.32-4.03.06-5.8-2.58-6.99-6.09-4.65-13.68-9.42-27.32-14.2-40.95-.92-2.63-1.3-5.13.83-7.32,3-3.08,7.83-1.74,9.46,2.77,3.17,8.79,6.17,17.63,9.24,26.46.37,1.05.74,2.1,1.47,4.17Z"/>
  <path class="cls-1" d="M188.9,333.13c-8.37,0-16.75.03-25.12-.01-4.54-.02-6.88-1.99-6.86-5.59.02-3.56,2.44-5.62,6.9-5.63,16.62-.03,33.24-.03,49.86,0,4.62,0,7.22,2.22,7.09,5.86-.12,3.46-2.57,5.35-7.13,5.37-8.25.03-16.5,0-24.74,0Z"/>
  <path class="cls-1" d="M188.97,228.72c-8.37,0-16.75.02-25.12,0-4.46-.02-6.9-2.03-6.93-5.58-.03-3.57,2.41-5.65,6.84-5.65,16.75-.03,33.5-.03,50.25,0,4.31,0,6.87,2.25,6.78,5.75-.09,3.36-2.56,5.46-6.69,5.48-8.37.04-16.75.01-25.12.01Z"/>
  <path class="cls-1" d="M24.83,86.89c.09-24.63,20.07-44.45,44.72-44.35,24.57.1,44.63,20.26,44.47,44.71-.16,24.51-20.42,44.6-44.83,44.47-24.54-.14-44.45-20.25-44.36-44.83ZM97.27,105.03c9.55-14.23,6.17-33.75-7.59-44.36-13.9-10.72-33.54-8.8-45.35,4.43-9.9,11.09-11.13,30.98-2.64,39.73,3.4-3.25,6.79-6.5,10.23-9.78-3.46-11.19-1.56-19.16,5.97-24.73,6.66-4.93,16.06-4.98,22.77-.13,7.68,5.55,9.59,13.42,6.16,24.86,3.47,3.32,6.86,6.56,10.45,9.99ZM89.15,113.4c-2.48-2.54-4.84-5.18-7.45-7.55-2-1.82-4.22-2.08-7.15-1.44-3.5.77-7.32.09-11-.03-1.07-.03-2.32-.75-3.17-.39-4.7,2.02-8.12,5.4-10.38,9.95,11.5,8.62,28.81,8.49,39.15-.54ZM69.32,77.89c-4.46.02-8.1,3.6-8.13,8-.03,4.36,3.63,8.04,8.05,8.11,4.62.07,8.36-3.64,8.27-8.21-.08-4.43-3.71-7.93-8.19-7.9Z"/>
  <path class="cls-1" d="M69.1,213.84c-10.5,0-20.99.03-31.49-.01-7.84-.03-12.72-4.65-12.97-12.42-.17-5.12-.17-10.25,0-15.37.24-7.57,5.03-12.46,12.59-12.5,21.49-.12,42.99-.13,64.48.01,7.45.05,12.31,5.2,12.46,12.66.1,5,.1,10,0,14.99-.16,7.65-5.16,12.58-12.82,12.62-10.75.05-21.49.01-32.24.01ZM102.93,202.38c0-4.92-.17-9.4.06-13.86.15-2.97-.82-3.86-3.79-3.83-13.1.14-26.2.06-39.3.06-6.99,0-13.97-.07-20.96.08-1.03.02-2.88,1.08-2.91,1.72-.24,5.2-.13,10.42-.13,15.83h67.04Z"/>
  <path class="cls-1" d="M69.27,333.13c-10.37,0-20.74.04-31.11,0-8.74-.04-13.43-4.69-13.54-13.4-.06-4.62-.09-9.25,0-13.87.17-8.05,4.87-13.01,12.82-13.05,21.24-.12,42.49-.12,63.73,0,8.12.04,12.93,5.13,13.01,13.28.05,4.62.05,9.25,0,13.87-.09,8.18-4.93,13.12-13.05,13.17-10.62.07-21.24.02-31.86.02ZM35.89,321.28c.59.28.7.37.81.37,21.33.08,42.65.17,63.98.11.75,0,2.1-1.57,2.15-2.47.23-4.23.04-8.48.13-12.72.04-2.01-.87-2.59-2.71-2.59-20.59.03-41.18,0-61.76.09-.87,0-2.45,1.15-2.48,1.81-.21,5.2-.11,10.42-.11,15.39Z"/>
  <path class="cls-1" d="M102.93,244.6H35.88c0,5.36-.08,10.58.09,15.79.02.67,1.25,1.71,2.06,1.87,1.56.32,3.24.04,4.85.17,3.09.23,4.84,2.16,5.09,5.05.26,2.94-1.28,5.27-4.24,5.78-10.34,1.79-19.61-1.64-19.18-14.28.14-4.24-.05-8.5.04-12.74.18-8.24,4.98-13.02,13.17-13.04,21.12-.04,42.23-.04,63.35,0,7.9.02,12.9,4.97,13.04,12.81.09,4.87.08,9.75,0,14.62-.12,7.66-5.04,12.83-12.62,12.93-10.62.15-21.24.09-31.86.01-4.12-.03-6.49-2.26-6.47-5.7.02-3.46,2.34-5.49,6.56-5.51,9.87-.05,19.74-.11,29.61.04,2.82.04,3.72-.87,3.59-3.65-.2-4.58-.05-9.18-.05-14.16Z"/>
</svg>